<?xml version="1.0" standalone="no"?>
<!DOCTYPE svg PUBLIC "-//W3C//DTD SVG 20010904//EN"
 "http://www.w3.org/TR/2001/REC-SVG-20010904/DTD/svg10.dtd">
<svg version="1.0" xmlns="http://www.w3.org/2000/svg"
 width="256.000000pt" height="256.000000pt" viewBox="0 0 256.000000 256.000000"
 preserveAspectRatio="xMidYMid meet">
<metadata>
Created by potrace 1.11, written by Peter Selinger 2001-2013
</metadata>
<g transform="translate(0.000000,256.000000) scale(0.100000,-0.100000)"
fill="#000000" stroke="none">
<path d="M1055 2496 c-137 -29 -312 -95 -391 -148 -23 -15 -47 -28 -53 -28 -6
0 -11 -4 -11 -9 0 -5 -8 -12 -19 -16 -10 -3 -30 -16 -43 -28 -42 -39 -119
-102 -129 -105 -5 -2 -9 -10 -9 -18 0 -8 -4 -14 -8 -14 -5 0 -34 -33 -65 -72
-31 -40 -62 -79 -68 -86 -25 -30 -127 -242 -147 -307 -47 -154 -53 -192 -58
-360 -3 -133 2 -182 34 -330 22 -100 135 -352 173 -385 3 -3 20 -25 37 -50 39
-54 102 -133 102 -128 0 3 22 -17 50 -43 46 -43 202 -159 215 -159 3 0 24 -12
48 -27 23 -14 43 -25 45 -24 1 1 23 -7 48 -19 50 -22 160 -57 203 -65 14 -3
37 -7 51 -10 14 -3 41 -8 60 -12 40 -8 280 -8 325 -1 151 27 250 56 350 104
86 41 164 83 175 94 3 3 32 25 65 50 75 55 184 164 220 219 15 22 32 41 36 41
5 0 9 6 9 13 0 7 8 22 18 33 10 10 24 34 31 51 7 18 17 33 21 33 4 0 11 10 15
22 4 13 8 25 9 28 1 3 12 28 25 55 13 28 25 55 26 60 0 6 4 17 7 25 50 121 78
366 60 525 -18 156 -47 260 -105 383 -17 37 -31 69 -32 72 0 3 -13 24 -28 47
-15 24 -27 47 -27 52 0 5 -3 11 -7 13 -5 2 -27 29 -51 61 -128 171 -319 315
-522 394 -110 43 -129 49 -170 57 -14 3 -49 9 -79 15 -72 15 -361 12 -436 -3z"/>
</g>
</svg>
